Coordinates
version=1
nRows=30
nColumns=19
inDegrees=yes

Units are S.I. units (second, meters, Newtons, ...)
If the header above contains a line with 'inDegrees', this indicates whether rotational values are in degrees (yes) or radians (no).

endheader
time	pelvis_tilt	pelvis_list	pelvis_rotation	pelvis_tx	pelvis_ty	pelvis_tz	hip_flexion_r	hip_adduction_r	hip_rotation_r	knee_angle_r	knee_angle_r_beta	ankle_angle_r	hip_flexion_l	hip_adduction_l	hip_rotation_l	knee_angle_l	knee_angle_l_beta	ankle_angle_l
     15.39333333	     -6.67375603	     -2.53663308	      1.04235907	      2.31308391	      0.96578543	      0.99239369	     25.11434179	      4.42590968	     -9.60084951	     13.69480576	      0.23901945	     -4.97235823	    -10.90263482	     -3.86923445	     -5.58051977	     38.63223753	      0.67425974	    -13.33336604
     15.40000000	     -6.15760132	     -2.99171573	      0.63333727	      2.31356042	      0.96305420	      0.99314620	     24.40733003	      5.10252561	     -9.97407002	     14.68398176	      0.25628383	     -3.91938616	    -10.63846378	     -4.40225762	     -5.54708721	     41.45393991	      0.72350774	    -12.68699949
     15.40666667	     -5.92852883	     -3.34325063	      0.19546451	      2.31382046	      0.95968411	      0.99380369	     24.17727203	      5.59472087	    -10.33383879	     16.35153207	      0.28538807	     -2.42353981	     -9.94087237	     -4.79876528	     -5.47840615	     44.41834001	      0.77524628	    -11.91173683
     15.41333333	     -5.27373725	     -3.75678100	     -0.25431518	      2.31404082	      0.95654982	      0.99444957	     23.47819177	      6.14082506	    -10.59200437	     18.28975005	      0.31921636	     -0.54177329	     -9.70179050	     -5.28654616	     -5.54812237	     47.28651468	      0.82530537	    -11.09524001
     15.42000000	     -4.64143510	     -4.12172302	     -0.69990133	      2.31410481	      0.95321930	      0.99506531	     22.84091091	      6.60128455	    -10.71152685	     20.52217457	      0.35817952	      1.60380303	     -9.36182999	     -5.70755267	     -5.56525819	     50.15501506	      0.87537015	    -10.26064138
     15.42666667	     -4.43512271	     -4.23626131	     -1.14178494	      2.31379743	      0.94931044	      0.99566555	     22.77412444	      6.76250684	    -10.65645933	     23.10664712	      0.40328707	      3.99275434	     -8.38877029	     -5.85000821	     -5.44206835	     53.13157180	      0.92732086	     -9.37437906
     15.43333333	     -3.57325795	     -4.61109263	     -1.43960772	      2.31359250	      0.94626457	      0.99617737	     21.74068455	      7.21523299	    -10.48834001	     25.25946597	      0.44086085	      6.41906006	     -8.13739579	     -6.33864659	     -5.38013662	     55.90805488	      0.97577964	     -8.62875379
     15.44000000	     -3.38601069	     -4.50162200	     -1.79577822	      2.31271901	      0.94247328	      0.99670843	     21.68717968	      7.09669222	    -10.22701217	     27.91391437	      0.48718971	      8.76911586	     -6.91226709	     -6.27863397	     -5.16155460	     58.83880154	      1.02693081	     -7.39613499
     15.44666667	     -2.93694824	     -4.53991083	     -2.00607970	      2.31181606	      0.93928303	      0.99719415	     21.14286629	      7.14607039	     -9.90451281	     30.14033372	      0.52604806	     11.05957567	     -5.91524311	     -6.43390548	     -4.89097054	     61.62312081	      1.07552635	     -6.33648918
     15.45333333	     -2.20904030	     -4.66317351	     -2.12727456	      2.31082008	      0.93673650	      0.99763146	     20.12937339	      7.27769427	     -9.58349642	     32.00605372	      0.55861102	     13.16780449	     -5.16552934	     -6.72977195	     -4.63843980	     64.25687803	      1.12149409	     -5.20683570
     15.46000000	     -2.14761328	     -4.51850623	     -2.14661345	      2.30937414	      0.93386770	      0.99800955	     19.87158028	      7.09713153	     -9.26949930	     33.84415490	      0.59069194	     15.07295812	     -3.46233668	     -6.72705547	     -4.09653357	     66.92952474	      1.16814057	     -3.96964143
     15.46666667	     -1.57388472	     -4.57090983	     -2.11356193	      2.30807812	      0.93201523	      0.99840032	     18.80674729	      7.12850969	     -9.00135454	     35.18727741	      0.61413385	     16.80813777	     -2.36112901	     -6.98306092	     -3.67145365	     69.30989287	      1.20968583	     -2.68153468
     15.47333333	     -1.56381824	     -4.46299334	     -1.89987062	      2.30646926	      0.93006869	      0.99863811	     18.28383017	      6.94336669	     -8.87972798	     36.29912127	      0.63353918	     18.18673045	     -0.43048362	     -7.05147598	     -2.94192594	     71.68376746	      1.25111776	     -1.36410494
     15.48000000	     -1.60418677	     -4.36359665	     -1.70701987	      2.30485929	      0.92853297	      0.99889487	     17.67727425	      6.78055425	     -8.75888245	     37.13283755	      0.64809028	     19.43673008	      1.56499266	     -7.12736715	     -2.27479709	     73.82653420	      1.28851610	     -0.08337389
     15.48666667	     -1.38463550	     -4.35465806	     -1.44057931	      2.30346277	      0.92785554	      0.99912501	     16.52584246	      6.71780585	     -8.72322333	     37.46579120	      0.65390141	     20.41415288	      3.24543166	     -7.32060413	     -1.64801976	     75.65565508	      1.32044028	      1.28795379
     15.49333333	     -1.56688007	     -4.30058003	     -1.11700396	      2.30201856	      0.92720440	      0.99932067	     15.70694682	      6.61102224	     -8.77525519	     37.57190555	      0.65575346	     21.22791233	      5.43961691	     -7.40906590	     -0.88341176	     77.34046561	      1.34984577	      2.50460881
     15.50000000	     -1.40590764	     -4.15108637	     -1.04410685	      2.30075018	      0.92749413	      0.99975130	     14.33660467	      6.53433403	     -8.38406786	     37.36013625	      0.65205739	     21.92272490	      7.08814533	     -7.37311360	     -0.46580433	     78.58566500	      1.37157860	      3.53890628
     15.50666667	     -1.52082239	     -4.06570347	     -0.79217761	      2.29972091	      0.92795942	      1.00005149	     13.07064677	      6.48194457	     -8.32677246	     36.76759784	      0.64171564	     22.36304593	      9.06158396	     -7.40069206	      0.09725486	     79.62983479	      1.38980280	      4.92910372
     15.51333333	     -1.78094922	     -4.01108651	     -0.49513824	      2.29869187	      0.92864777	      1.00028950	     11.89134024	      6.45717705	     -8.38653636	     36.01537631	      0.62858690	     22.42630671	     11.19767734	     -7.45262732	      0.64706371	     80.45853015	      1.40426626	      6.14724726
     15.52000000	     -2.19049070	     -3.97822377	     -0.26313275	      2.29773911	      0.92955713	      1.00053740	     10.78787911	      6.47120652	     -8.46449898	     35.08182947	      0.61229343	     22.31358060	     13.44012999	     -7.45239993	      1.18313854	     81.04418121	      1.41448780	      7.20006854
     15.52666667	     -2.50209795	     -3.60177325	     -0.34519759	      2.29712778	      0.93118324	      1.00111175	      9.49387153	      6.21539341	     -8.05369803	     34.03731523	      0.59406322	     22.16016349	     15.30774756	     -7.09923761	      1.24811563	     81.11757243	      1.41576872	      8.04409095
     15.53333333	     -2.81655665	     -3.51965185	     -0.25147688	      2.29654033	      0.93300767	      1.00153136	      8.11514879	      6.26762933	     -7.87916132	     32.74495524	      0.57150728	     21.59381636	     17.20381795	     -7.04804297	      1.50095220	     81.07710268	      1.41506239	      9.12839266
     15.54000000	     -3.19968841	     -3.07821896	     -0.39661192	      2.29615860	      0.93528895	      1.00212724	      6.82816396	      5.94556794	     -7.44413554	     31.50822640	      0.54992229	     20.94413461	     18.95019335	     -6.60198420	      1.39747594	     80.58804613	      1.40652674	      9.88031082
     15.54666667	     -3.16291799	     -2.80812114	     -0.47910376	      2.29607659	      0.93837969	      1.00271854	      4.92575571	      5.82299407	     -7.07128069	     29.90172633	      0.52188358	     19.92560726	     20.11306301	     -6.38776189	      1.26375167	     79.80362620	      1.39283603	     10.73256795
     15.55333333	     -3.65028556	     -2.26965444	     -0.69313527	      2.29597932	      0.94113622	      1.00331415	      3.76647884	      5.36181870	     -6.65808584	     28.61913413	      0.49949812	     18.78228334	     21.74221835	     -5.84629197	      0.95440364	     78.76769365	      1.37475560	     11.39397022
     15.56000000	     -3.48124871	     -1.84701471	     -0.85116796	      2.29636650	      0.94497493	      1.00396369	      1.69497397	      5.04263492	     -6.27054606	     26.89419207	      0.46939220	     17.27003772	     22.46556580	     -5.49219382	      0.56137533	     77.36201879	      1.35022194	     12.05608231
     15.56666667	     -4.06248959	     -1.19924531	     -1.08161887	      2.29661480	      0.94816280	      1.00444655	      0.68899927	      4.40699775	     -5.97016174	     25.60576886	      0.44690497	     15.64552671	     23.94611836	     -4.82844932	      0.09434681	     75.74972574	      1.32208212	     12.56402930
     15.57333333	     -3.66430177	     -0.61457545	     -1.23442045	      2.29742911	      0.95266775	      1.00506908	     -1.62169157	      3.86753680	     -5.68675874	     23.79173509	      0.41524411	     13.69930639	     24.12912474	     -4.31058825	     -0.48998788	     73.74464361	      1.28708684	     13.01126649
     15.58000000	     -3.84190337	      0.01627874	     -1.34634875	      2.29818365	      0.95659659	      1.00546947	     -3.13596722	      3.23540887	     -5.56893208	     22.24171211	      0.38819111	     11.58847113	     24.90235875	     -3.68410452	     -1.03905133	     71.57514387	      1.24922192	     13.26120840
     15.58666667	     -3.92022484	      0.67925497	     -1.42410778	      2.29920014	      0.96068112	      1.00578306	     -4.75774333	      2.56012868	     -5.50034501	     20.64753193	      0.36036741	      9.28617542	     25.42259516	     -3.00181153	     -1.62331237	     69.13542147	      1.20664073	     13.46326769
